<svg xmlns="http://www.w3.org/2000/svg" xmlns:xlink="http://www.w3.org/1999/xlink" width="915.185" height="695.482" viewBox="0 0 915.185 695.482"><defs><style>.a{fill:#d3ebe0;}.b{fill:#86ccac;}.c{fill:#48ba86;}.d{filter:url(#e);}.e{filter:url(#c);}.f{filter:url(#a);}</style><filter id="a" x="0" y="45" width="897.185" height="650.482" filterUnits="userSpaceOnUse"><feOffset dy="4" input="SourceAlpha"/><feGaussianBlur stdDeviation="3" result="b"/><feFlood flood-opacity="0.161"/><feComposite operator="in" in2="b"/><feComposite in="SourceGraphic"/></filter><filter id="c" x="0" y="18" width="897.185" height="650.482" filterUnits="userSpaceOnUse"><feOffset dy="3" input="SourceAlpha"/><feGaussianBlur stdDeviation="3" result="d"/><feFlood flood-opacity="0.161"/><feComposite operator="in" in2="d"/><feComposite in="SourceGraphic"/></filter><filter id="e" x="18" y="0" width="897.185" height="650.482" filterUnits="userSpaceOnUse"><feOffset dy="4" input="SourceAlpha"/><feGaussianBlur stdDeviation="3" result="f"/><feFlood flood-opacity="0.161"/><feComposite operator="in" in2="f"/><feComposite in="SourceGraphic"/></filter></defs><g transform="translate(9 5)"><g class="f" transform="matrix(1, 0, 0, 1, -9, -5)"><path class="a" d="M1.878,20.36c93.939,127.273,240.145,183.794,369.7,206.061,193.939,33.333,300,106.061,354.545,196.97s130.3,209.091,130.3,209.091L879.185,2.759h0S-47.127-10.287,1.878,20.36Z" transform="translate(9 50)"/></g><g class="e" transform="matrix(1, 0, 0, 1, -9, -5)"><path class="b" d="M1.878,20.36c93.939,127.273,240.145,183.794,369.7,206.061,193.939,33.333,300,106.061,354.545,196.97s130.3,209.091,130.3,209.091L879.185,2.759h0S-47.127-10.287,1.878,20.36Z" transform="translate(9 24)"/></g><g class="d" transform="matrix(1, 0, 0, 1, -9, -5)"><path class="c" d="M1.878,20.36c93.939,127.273,240.145,183.794,369.7,206.061,193.939,33.333,300,106.061,354.545,196.97s130.3,209.091,130.3,209.091L879.185,2.759h0S-47.127-10.287,1.878,20.36Z" transform="translate(27 5)"/></g></g></svg>