<svg xmlns="http://www.w3.org/2000/svg" xmlns:xlink="http://www.w3.org/1999/xlink" width="1920" height="1937.529" viewBox="0 0 1920 1937.529"><defs><style>.a,.e,.f{fill:none;}.b{clip-path:url(#a);}.c{opacity:0.04;}.d{clip-path:url(#b);}.e,.f{stroke:#fff;stroke-width:2px;}.e{stroke-miterlimit:10;}</style><clipPath id="a"><rect class="a" width="1920" height="1937.529"/></clipPath><clipPath id="b"><rect class="a" width="2015.261" height="1945.266"/></clipPath></defs><g transform="translate(0 0)"><g class="b" transform="translate(0 0)"><g class="c" transform="translate(-56.72 -1.776)"><g class="d"><path class="e" d="M244.062,665.248c36.407,0,36.407,46.49,72.814,46.49s36.407-46.49,72.816-46.49,36.407,46.49,72.814,46.49,36.411-46.49,72.823-46.49,36.413,46.49,72.825,46.49" transform="translate(246.545 529.989)"/><path class="e" d="M556.768,275.474c-16.512,32.742-57.572,11.657-74.082,44.4s24.548,53.829,8.036,86.573-57.573,11.659-74.084,44.4,24.546,53.833,8.032,86.582S367.1,549.1,350.583,581.846" transform="translate(329.395 220.506)"/><path class="e" d="M539.542,271.186c-16.512,32.744-57.57,11.659-74.08,44.4s24.548,53.829,8.036,86.577-57.575,11.656-74.084,44.4,24.544,53.835,8.03,86.582-57.575,11.661-74.089,44.409" transform="translate(315.995 217.101)"/><path class="e" d="M1005.933,538.25c20.573,30.31-17.435,56.581,3.14,86.891s58.583,4.038,79.155,34.351-17.434,56.585,3.14,86.895,58.587,4.044,79.163,34.359-17.435,56.585,3.143,86.9" transform="translate(836.634 429.152)"/><path class="e" d="M988.158,550.424c20.573,30.312-17.435,56.585,3.138,86.893s58.583,4.044,79.157,34.353-17.435,56.581,3.138,86.9,58.587,4.04,79.165,34.357-17.435,56.585,3.141,86.9" transform="translate(822.809 438.818)"/><path class="e" d="M86.917,33.41c36.407-.185,36.636,46.307,73.042,46.122s36.178-46.675,72.587-46.858S269.182,78.982,305.589,78.8s36.18-46.675,72.592-46.858,36.644,46.307,73.054,46.122" transform="translate(124.321 27.137)"/><path class="e" d="M87.025,54.955c36.407-.185,36.636,46.307,73.042,46.122S196.245,54.4,232.654,54.22s36.636,46.307,73.044,46.122,36.18-46.673,72.592-46.858,36.642,46.307,73.054,46.124" transform="translate(124.405 44.244)"/><path class="e" d="M547.336,869.252l31.319,20,31.32-20,31.323,20,31.323-20,31.323,20" transform="translate(482.425 691.97)"/><path class="e" d="M593.783,101.364,585,137.7l28.774,23.572L604.995,197.6l28.778,23.573-8.781,36.339" transform="translate(511.721 82.261)"/><path class="e" d="M512.337,858.105l31.319,20,31.319-20,31.323,20,31.323-20,31.323,20" transform="translate(455.203 683.12)"/><path class="e" d="M760,29.213l55.122,35.2,55.121-35.2,55.122,35.2,55.128-35.2,55.125,35.2" transform="translate(647.83 24.973)"/><path class="e" d="M698.4,9.6l55.122,35.2L808.643,9.6l55.122,35.2L918.893,9.6l55.129,35.2" transform="translate(599.92 9.396)"/><path class="e" d="M383.306,213.883l74.622-13.073,20.251-73.651L552.8,114.086l20.256-73.655,74.63-13.08" transform="translate(354.846 23.494)"/><path class="e" d="M458.136,186.531l74.622-13.073,20.251-73.649,74.621-13.075,20.257-73.655L722.516,0" transform="translate(413.047 1.777)"/><line class="e" x2="50.969" y2="95.048" transform="translate(1365.639 277.698)"/><line class="e" x1="94.191" y2="51.434" transform="translate(1344.028 299.505)"/><line class="e" x2="87.241" y2="162.69" transform="translate(332.274 1663.593)"/><line class="e" x1="161.218" y2="88.036" transform="translate(295.287 1700.92)"/><line class="e" x2="50.969" y2="95.047" transform="translate(1029.306 825.728)"/><line class="e" x1="94.189" y2="51.434" transform="translate(1007.697 847.533)"/><path class="e" d="M688.473,1054.585l99.941,17.625,58.594-83.6,99.951,17.618" transform="translate(592.198 786.744)"/><path class="e" d="M735.021,1051.774l58.59-83.6L893.567,985.8" transform="translate(628.403 770.518)"/><path class="e" d="M1064.983,273.565a44.092,44.092,0,0,1-17.552,59.491,43.292,43.292,0,0,1-58.951-17.712,44.092,44.092,0,0,1,17.552-59.491A43.291,43.291,0,0,1,1064.983,273.565Z" transform="translate(821.452 200.72)"/><path class="e" d="M1124.078,867.791a44.1,44.1,0,0,1-17.55,59.491,43.3,43.3,0,0,1-58.956-17.712,44.1,44.1,0,0,1,17.556-59.491A43.3,43.3,0,0,1,1124.078,867.791Z" transform="translate(867.415 672.54)"/><path class="f" d="M0,0,54.27-.247l-.247,54.27-54.27.247Z" transform="translate(1563.185 559.823) rotate(-45.001)"/><path class="f" d="M0,0,54.269-.247l-.247,54.269-54.269.247Z" transform="translate(681.78 69.452) rotate(-45)"/><rect class="e" width="54.023" height="54.521" transform="translate(279.509 1395.059)"/><rect class="e" width="54.024" height="54.518" transform="translate(1611.338 1711.116)"/><rect class="e" width="54.022" height="54.517" transform="translate(984.482 412.543)"/><path class="e" d="M974.021,557.1l88.035-17.758,20.7-88.838-88.031,17.761Z" transform="translate(814.292 359.484)"/><path class="e" d="M957.336,438.56l88.031-17.761,50.365,53.3L1007.7,491.858Z" transform="translate(801.314 335.895)"/><path class="e" d="M945.691,519.534l20.7-88.835,50.365,53.3-20.7,88.835Z" transform="translate(792.257 343.756)"/><path class="e" d="M342.905,903.309l88.032-17.761,20.7-88.835L363.6,814.474Z" transform="translate(323.423 634.373)"/><path class="e" d="M326.218,784.762,414.25,767l50.365,53.3-88.032,17.761Z" transform="translate(310.444 610.784)"/><path class="e" d="M314.575,865.741l20.7-88.839,50.365,53.3-20.7,88.835Z" transform="translate(301.388 618.644)"/><path class="e" d="M554.818,761.667l88.031-17.761,20.7-88.835L575.52,672.832Z" transform="translate(488.245 521.908)"/><path class="e" d="M538.132,643.123l88.032-17.761,50.365,53.3L588.5,696.421Z" transform="translate(475.267 498.319)"/><path class="e" d="M526.489,724.1l20.7-88.835,50.365,53.3-20.7,88.835Z" transform="translate(466.21 506.18)"/><path class="e" d="M207.112,426.652l-69.575-69.891,25.193-95.75L257.5,235.152l69.577,69.891" transform="translate(163.692 188.49)"/><path class="e" d="M315.981,293.669l-94.768,25.859L151.8,249.478" transform="translate(174.783 199.865)"/><line class="e" x1="25.193" y2="95.75" transform="translate(370.804 519.392)"/><path class="e" d="M59.377,278.179l69.259,70.211,94.884-25.424,25.625-95.632-69.259-70.211L85,182.547Z" transform="translate(102.901 126.534)"/><path class="e" d="M299.946,251.816l-25.113,95.671L205.257,277.6l25.194-95.75,69.495,69.97" transform="translate(216.363 146.165)"/><path class="e" d="M127.1,156.88l69.259,70.211,94.884-25.424" transform="translate(155.573 126.342)"/><path class="e" d="M59.377,224.6l69.576,69.891-25.194,95.75" transform="translate(102.901 180.112)"/><path class="e" d="M153.68,398.313l94.806-25.342L179.227,302.76,84.343,328.184l69.337,70.129" transform="translate(122.319 242.171)"/><path class="e" d="M138.374,157.124l-25.625,95.633,69.417,70.05" transform="translate(144.413 126.535)"/><line class="e" x1="94.884" y2="25.423" transform="translate(162.278 379.291)"/><path class="e" d="M820.205,835.336l61.851-51.571,75.181,28.266,13.333,79.84-61.851,51.567" transform="translate(694.657 624.093)"/><path class="e" d="M875.828,930.865l-13.333-79.837L924.463,799.6" transform="translate(727.548 636.667)"/><line class="e" x1="75.18" y1="28.266" transform="translate(1514.862 1459.429)"/><path class="e" d="M952.072,726.4l-62.083,51.287,12.972,79.9,75.052,28.613,62.083-51.283-12.969-79.9Z" transform="translate(748.933 578.543)"/><path class="e" d="M945.043,923.984l-75.121-28.2,61.851-51.571,75.181,28.27-61.91,51.5" transform="translate(733.325 672.092)"/><path class="e" d="M1001.788,786.852l-62.083,51.283,12.972,79.9" transform="translate(787.601 626.544)"/><path class="e" d="M984.861,726.4,923.01,777.969,847.83,749.7" transform="translate(716.143 578.543)"/><path class="e" d="M812.941,790.742l12.913,79.83,62.084-51.287-12.972-79.9-62.024,51.354" transform="translate(689.007 588.857)"/><path class="e" d="M1034.369,799.549l-75.052-28.613-61.965,51.427" transform="translate(754.66 613.906)"/><line class="e" x1="12.972" y1="79.9" transform="translate(1701.004 1304.942)"/><path class="e" d="M2.991,733.441l15.2-79.5,75.825-26.462,60.622,53.035-15.2,79.494" transform="translate(59.045 500.003)"/><path class="e" d="M106.265,760,45.643,706.964,61.024,627.5" transform="translate(92.219 500.019)"/><line class="e" x1="75.824" y2="26.462" transform="translate(62.037 1206.982)"/><path class="e" d="M35.789,565.049,20.229,644.476l60.382,53.312,75.944-26.111,15.561-79.427-60.382-53.312Z" transform="translate(72.452 429.698)"/><path class="e" d="M155.544,721.968,79.809,748.447l15.2-79.5,75.825-26.462-15.292,79.479" transform="translate(118.793 511.918)"/><path class="e" d="M112.607,568.5,97.046,647.925l60.382,53.312" transform="translate(132.199 453.169)"/><path class="e" d="M68.805,553.492l-15.2,79.5-75.825,26.462" transform="translate(39.436 441.254)"/><path class="e" d="M-30.923,692,29.37,745.292l15.559-79.423-60.38-53.312L-30.923,692" transform="translate(32.667 488.152)"/><path class="e" d="M145.619,568.654,69.676,594.765,54.294,674.227" transform="translate(98.948 453.293)"/><line class="e" x1="60.382" y1="53.312" transform="translate(108.241 994.747)"/><path class="e" d="M722.176,677.775l15.2-79.5L813.2,571.816l60.621,53.032-15.2,79.5" transform="translate(618.412 455.804)"/><path class="e" d="M825.45,704.33,764.828,651.3l15.382-79.462" transform="translate(651.586 455.819)"/><line class="e" x1="75.826" y2="26.462" transform="translate(1340.587 1107.117)"/><path class="e" d="M754.973,509.384l-15.559,79.427L799.8,642.123l75.941-26.115L891.3,536.585l-60.382-53.316Z" transform="translate(631.819 385.497)"/><path class="e" d="M874.73,666.3l-75.736,26.483,15.2-79.5,75.827-26.462L874.73,666.3" transform="translate(678.159 467.719)"/><path class="e" d="M831.792,512.832l-15.559,79.427,60.382,53.312" transform="translate(691.567 408.97)"/><path class="e" d="M787.989,497.826l-15.2,79.5-75.823,26.462" transform="translate(598.803 397.055)"/><path class="e" d="M688.262,636.333l60.292,53.295L764.112,610.2l-60.379-53.316-15.472,79.444" transform="translate(592.034 443.951)"/><path class="e" d="M864.8,512.986,788.859,539.1,773.48,618.563" transform="translate(658.315 409.092)"/><line class="e" x1="60.382" y1="53.312" transform="translate(1386.792 894.881)"/><path class="e" d="M308.441,622.708,149.778,462.645,366.935,403.96Z" transform="translate(173.213 322.525)"/><path class="e" d="M265.48,541.271l-81.383-82.1,111.429-30.058Z" transform="translate(199.906 342.496)"/><path class="e" d="M310.7,596.735l-5.168,19.548L146.871,456.217l5.167-19.545" transform="translate(170.952 348.498)"/><line class="e" y1="24.836" x2="92.066" transform="translate(398.2 791.155)"/><path class="e" d="M727.864,560.327,569.2,400.263l217.16-58.684Z" transform="translate(499.431 272.994)"/><path class="e" d="M684.9,478.89l-81.382-82.1,111.431-30.058Z" transform="translate(526.125 292.965)"/><path class="e" d="M730.125,534.354,724.958,553.9,566.295,393.836l5.167-19.546" transform="translate(497.171 298.966)"/><line class="e" y1="24.834" x2="92.066" transform="translate(1143.844 679.243)"/><path class="e" d="M815.73,1018.435l-224.347.035L703.813,822.016Z" transform="translate(516.684 654.464)"/><path class="e" d="M737.225,958.334l-115.073.018,57.729-100.766Z" transform="translate(540.615 682.707)"/><path class="e" d="M815.73,931.5l10.045,17.506-224.351.035-10.042-17.506" transform="translate(516.684 741.397)"/><line class="e" y1="83.257" x2="47.698" transform="translate(1182.841 1557.802)"/><path class="e" d="M588.2,1159.476l-224.351.035L476.284,963.057Z" transform="translate(339.715 766.451)"/><path class="e" d="M509.7,1099.377l-115.074.017,57.73-100.766Z" transform="translate(363.647 794.696)"/><path class="e" d="M588.2,1072.543l10.041,17.509-224.348.031-10.043-17.506" transform="translate(339.715 853.384)"/><line class="e" y1="83.257" x2="47.698" transform="translate(778.343 1810.831)"/><path class="e" d="M1119.824,329.225,914.848,122.437,1195.4,46.623Z" transform="translate(768.268 38.796)"/><path class="e" d="M1064.325,224.017,959.186,117.949l143.955-38.833Z" transform="translate(802.753 64.596)"/><path class="e" d="M1122.745,295.671l-6.674,25.251L911.092,114.135l6.677-25.253" transform="translate(765.346 72.351)"/><line class="e" y1="32.084" x2="118.941" transform="translate(1780.279 168.966)"/></g></g></g></g></svg>